<svg xmlns="http://www.w3.org/2000/svg" viewBox="0 0 1450.1 304.2"><style>svg { fill: white; }</style><title>Asset 2graph</title><g id="Layer_2" data-name="Layer 2"><g id="Layer_1-2" data-name="Layer 1"><g style="isolation:isolate"><path d="M0,2.3H41.2V53.6H80.6V2.3h41.2V138.6H80.6V88.5H41.2v50.1H0Z"/><path d="M230.9,0c43.8,0,73.2,29.9,73.2,69.6s-29.4,71.3-73.2,71.3-73.2-30.7-73.2-71.3S187,0,230.9,0Zm0,104.5c17.9,0,30.9-14.1,30.9-34.9s-13-33.2-30.9-33.2S200,49.8,200,69.6,213,104.5,230.9,104.5Z"/><path d="M326.6,2.3h40.6L380.7,77c1.6,8.6,2.3,17.6,2.3,17.6h.8A108,108,0,0,1,386.5,77L405.1,2.3h36.1L458.9,77a135.9,135.9,0,0,1,2.9,17.6h.7A131.6,131.6,0,0,1,464.6,77L480.1,2.3h39.8L485.4,138.6H441.9l-15.8-66a145.3,145.3,0,0,1-3-18.8h-.6a185.4,185.4,0,0,1-3.1,19l-15.8,65.8H359.8Z"/><path d="M551.4,2.3h41.2V104.1h53.3v34.5H551.4Z"/><path d="M678.4,2.3h59.2c30,0,50.4,16.2,50.4,44.8,0,15.6-8,30.3-20.8,38.1v.4c.4.8,3.1,4.2,5.9,9.3l23.8,43.7H752.1L731,95.9H719.5v42.7H678.4Zm53.3,61.8c9.2,0,14.5-5.6,14.5-14.5s-3.6-14.1-16-14.1H719.5V64.1Z"/><path d="M892.7,0c43.8,0,73.2,29.9,73.2,69.6s-29.4,71.3-73.2,71.3-73.3-30.7-73.3-71.3S848.8,0,892.7,0Zm0,104.5c17.9,0,30.8-14.1,30.8-34.9s-12.9-33.2-30.8-33.2-30.9,13.4-30.9,33.2S874.7,104.5,892.7,104.5Z"/><path d="M1000.2,2.3h41.2V85c0,13,7.2,19.5,19,19.5s19.1-6.5,19.1-19.5V2.3h41.2V87.5c0,31.3-24.2,53.4-60.7,53.4s-59.8-22.1-59.8-53.4Z"/><path d="M1161.7,2.3h39.2l33.6,55.9a125.5,125.5,0,0,1,9.7,20.7h.8s-1.5-12.2-1.5-20.7V2.3h39.8V138.6h-40l-33.8-58.5c-4.9-8.2-9.7-20.6-9.7-20.6h-.8a193.1,193.1,0,0,1,1.6,20.6v58.5h-38.9Z"/><path d="M1325.8,2.3h55.3c42.1,0,69,25,69,67.9s-26.9,68.4-69,68.4h-55.3Zm52.6,102.8c18.5,0,29.4-11.9,29.4-34.9s-11.4-34.4-29.4-34.4H1367v69.3Z"/></g><g style="isolation:isolate"><path d="M37,215.3H2.6v-8.5H80.7v8.5H46.4v87.3H37Z"/><path d="M101.6,206.8H111v43.6h55.5V206.8h9.4v95.8h-9.4V258.9H111v43.7h-9.4Z"/><path d="M209.7,206.8h53.9v8.5H219.1v34.8h36.4v8.5H219.1v35.5h47v8.5H209.7Z"/><path d="M340.7,272.1H302.2l-10.9,30.5h-10l35.2-95.8h10.1l35.1,95.8h-10Zm-19.3-55.3s-2.1,7.9-3.7,12.4l-12.8,34.7h33l-12.6-34.7c-1.6-4.5-3.7-12.4-3.7-12.4Z"/><path d="M398.7,215.3H364.3v-8.5h78.1v8.5H408.1v87.3h-9.4Z"/><path d="M463.3,206.8h28.3c9.8,0,14.2,1,18,2.6,9,4,14.4,13.1,14.4,24.7s-7.3,22.8-18.1,25.8v.3a29.7,29.7,0,0,1,2.5,3.8l20.8,38.6H518.4l-21.6-40.3H472.7v40.3h-9.4Zm32.1,47c11.6,0,18.9-7.5,18.9-19.5,0-7.9-3.1-13.7-8.7-16.7-2.8-1.5-6.2-2.3-13.6-2.3H472.7v38.5Z"/><path d="M554.8,206.8h53.9v8.5H564.2v34.8h36.4v8.5H564.2v35.5h47v8.5H554.8Z"/><path d="M722.8,205.2c22.9,0,34.5,12.4,34.5,12.4l-5,6.9a45.2,45.2,0,0,0-29.2-10.6c-22.5,0-38.5,17.4-38.5,40s16,41.6,38.8,41.6a44.7,44.7,0,0,0,31-12.8l5.5,6.7s-13.1,14.8-36.6,14.8c-28.4,0-48.5-22.2-48.5-50.1S695.5,205.2,722.8,205.2Z"/><path d="M827.7,205.2a48.4,48.4,0,0,1,48.8,48.9c0,28-21.7,50.1-48.8,50.1S779,282.1,779,254.1A48.4,48.4,0,0,1,827.7,205.2Zm0,90.3c21.5,0,39-18,39-41.4s-17.5-40.2-39-40.2-38.9,17.3-38.9,40.2S806.1,295.5,827.7,295.5Z"/><path d="M908.3,206.8h9.8l25.1,56.3c2.2,4.9,4.6,11.7,4.6,11.7h.3s2.6-6.8,4.8-11.7l25-56.3h9.7l7.6,95.8h-9.4l-5.3-67c-.4-5.2-.3-13.4-.3-13.4H980s-2.9,8.5-5.1,13.4l-22.5,49.1h-8.8l-22.5-49.1c-2.2-4.8-5.1-13.7-5.1-13.7h-.3s.1,8.5-.3,13.7l-5.3,67h-9.4Z"/><path d="M1030.6,206.8h9.8l25.1,56.3c2.2,4.9,4.6,11.7,4.6,11.7h.3s2.6-6.8,4.8-11.7l25-56.3h9.7l7.6,95.8h-9.4l-5.3-67c-.4-5.2-.3-13.4-.3-13.4h-.2s-2.9,8.5-5.1,13.4l-22.5,49.1h-8.8l-22.5-49.1c-2.2-4.8-5.2-13.7-5.2-13.7h-.2s.1,8.5-.3,13.7l-5.3,67H1023Z"/><path d="M1190.5,205.2a48.4,48.4,0,0,1,48.8,48.9c0,28-21.7,50.1-48.8,50.1s-48.8-22.1-48.8-50.1A48.4,48.4,0,0,1,1190.5,205.2Zm0,90.3c21.5,0,38.9-18,38.9-41.4s-17.4-40.2-38.9-40.2-39,17.3-39,40.2S1168.8,295.5,1190.5,295.5Z"/><path d="M1266.5,206.8h9.1l48.9,68.9c3.3,4.8,7.9,13,7.9,13h.3s-.8-7.9-.8-13V206.8h9.4v95.8h-9.2l-48.9-68.9c-3.2-4.8-7.9-13-7.9-13h-.2s.8,7.9.8,13v68.9h-9.4Z"/><path d="M1373.5,284.7s10,10.5,25.1,10.5c10.5,0,19-6.3,19-16.6,0-24.1-47.8-18-47.8-47.7,0-13.7,12.2-25.7,29.9-25.7s25.6,9.3,25.6,9.3l-4.7,7.9a32.4,32.4,0,0,0-20.9-8.2c-12.3,0-20.2,8-20.2,16.5,0,22.7,47.8,16.2,47.8,47.6,0,14.3-11,25.9-29,25.9-19.6,0-30.4-12.3-30.4-12.3Z"/></g></g></g></svg>
